<svg id="Layer_1" enable-background="new 0 0 497 497" height="512" viewBox="0 0 497 497" width="512" xmlns="http://www.w3.org/2000/svg"><g><g><path d="m69.641 326.603c-24.885 0-48.265-10.083-64.304-27.696-17.048-18.721 10.704-46.075 27.767-26.899 8.674 9.75 22.334 15.571 36.537 15.571 13.566 0 23.104-8.163 24.487-16.055.469-2.676.523-11.961-18.476-19.099-2.662-1-5.984-2.077-9.501-3.216-17.432-5.648-41.306-13.384-52.255-33.15-21.504-38.817 15.487-76.759 53.298-76.759 30.206 0 52.63 18.841 53.769 19.816 18.271 17.151-5.292 43.655-24.536 29.971-.156-.13-13.238-13.215-29.202-12.043-10.485.77-22.405 8.141-19.96 19.838 2.87 13.73 30.901 14.892 41.648 18.93 37.286 14.009 46.625 41.508 42.933 62.572-4.899 27.939-31.059 48.219-62.205 48.219z" fill="#ff5e57"/></g><g><path d="m434.048 326.603c-24.885 0-48.265-10.083-64.304-27.696-17.048-18.721 10.704-46.075 27.767-26.899 8.674 9.75 22.334 15.571 36.537 15.571 13.566 0 23.104-8.163 24.487-16.055.469-2.676.523-11.961-18.476-19.099-2.662-1-5.984-2.077-9.501-3.216-17.432-5.648-41.306-13.384-52.255-33.15-21.504-38.817 15.487-76.759 53.298-76.759 30.206 0 52.63 18.841 53.769 19.816 18.271 17.151-5.292 43.655-24.536 29.971-.156-.13-13.238-13.215-29.202-12.043-10.485.77-22.405 8.141-19.96 19.838 2.87 13.73 30.901 14.892 41.648 18.93 37.286 14.009 46.625 41.508 42.933 62.572-4.898 27.939-31.058 48.219-62.205 48.219z" fill="#ff5e57"/></g><g><path d="m252.299 140.32c-50.453 0-91.352 41.658-91.352 93.046 0 28.97 13.006 54.839 33.387 71.903 2.409 2.017 3.675 5.088 3.478 8.223l-2.358 37.463c-.367 5.825 6.673 9.002 10.798 4.874l27.181-27.199c2.151-2.153 5.168-3.23 8.19-2.865 3.502.423 7.062.648 10.676.648 50.453 0 91.353-41.658 91.353-93.046s-40.901-93.047-91.353-93.047z" fill="#cff5ff"/><path d="m252.299 140.32c-5.11 0-10.119.434-15 1.256 43.315 7.289 76.353 45.607 76.353 91.79 0 51.388-40.9 93.046-91.353 93.046-3.614 0-7.174-.225-10.676-.648-3.021-.365-6.038.712-8.19 2.865l-7.016 7.021-.963 15.305c-.366 5.825 6.673 9.002 10.799 4.874l27.181-27.199c2.151-2.153 5.168-3.23 8.19-2.865 3.502.423 7.062.648 10.676.648 50.452 0 91.353-41.658 91.353-93.046-.002-51.388-40.902-93.047-91.354-93.047z" fill="#b8f0ff"/><g><g><path d="m210.963 239.691c9.652 0 9.668-15 0-15-9.652 0-9.668 15 0 15z" fill="#fff6db"/></g><g><path d="m250.498 239.691c9.652 0 9.668-15 0-15-9.652 0-9.668 15 0 15z" fill="#fff6db"/></g><g><path d="m290.033 239.691c9.652 0 9.668-15 0-15-9.652 0-9.668 15 0 15z" fill="#fff6db"/></g></g></g></g></svg>